<svg xmlns="http://www.w3.org/2000/svg" xmlns:xlink="http://www.w3.org/1999/xlink" version="1.1" x="0px" y="0px" viewBox="0 0 43.833 82.70875000000001" enable-background="new 0 0 43.833 66.167" xml:space="preserve"><g display="none"><path display="inline" d="M136.24,25.629c-1.288-0.304-3.585-0.663-5.769-0.885c-2.158-0.218-3.765,0.442-5.672,1.048   c-6.75,2.145-18.923,6.132-24.695,8.07c-3.409-0.483-7.224,1.455-8.623,1.874c-5.418-6.974-7.417-7.224-9.397-7.689   c-1.982-0.465-8.368-1.397-11.571-1.741s-19.145-1.773-20.224-1.889c0.794-0.218,6.984-1.938,8.412-2.326   c1.427-0.383,1.151-0.91-0.307-1.233c-1.771-0.393-4.944-0.886-6.337-0.775c-1.34,0.105-5.597,0.898-6.822,1.083   c-2.953-2.746-3.384-5.573-3.559-6.52c-0.175-0.945-1.313-7.834-1.628-9.783c-0.313-1.95-1.646-2.365-2.998-2.563   c-1.351-0.199-3.131,0.717-3.738,0.95c-0.608,0.232-0.812,0.465-0.89,1.048c-0.076,0.583-0.861,7.447-0.987,8.276   c-0.295,0.195-0.616,0.326-0.673,0.662c-0.058,0.336-0.561,4.397-0.661,5.288c-0.102,0.894,0.124,0.787,0.478,1.031   c-0.041,0.526-0.295,2.979-0.416,4.128c-4.281,0.845-17.083,3.423-20.576,4.197c-0.689,0.154-0.819,0.507,0.007,0.864   c2.95,1.278,6.174,1.592,8.506,1.368c1.346-0.128,11.034-1.66,13.418-1.995c0.759-0.107,1.066,0.089,1.305,0.262   c0.834,0.603,23.196,16.33,25.203,17.673c-1.67,0.266-49.92,7.17-53.358,7.604c-2.676,0.341-2.66,0.931-0.641,1.854   c1.696,0.776,4.328,1.715,6.69,2.345c2.225,0.594,3.832,0.871,8.164,0.565c6.058-0.429,34.576-2.984,43.246-3.861   c4.189,2.514,7.404,4.211,10.174,5.189c2.056,0.724,4.293,0.524,5.557,0.139c1.809-0.553,2.141-2.323,3.164-4.315   c0.741-0.438,0.807-0.362,1.481-1.099c9.562,1.641,20.124,1.82,25.694,0.887c3.372-0.566,4.34-2.551,2.641-5.023   c-0.833-1.213-2.054-2.498-2.967-3.385c1.455,0.514,3.134,1.06,5.102,1.121c2.694,0.084,3.922-1.183,4.943-3.356   c0.729-0.019,1.693-0.417,1.938-0.928c0.308-0.638-0.102-1.541-0.722-2.135c0.589-1.75,0.603-2.851-0.975-3.573   c-0.851-0.389-1.517-0.554-2.271-0.75c6.894-3.188,14.969-7.186,19.75-9.575C137.642,26.754,137.899,26.021,136.24,25.629z"/></g><g><path d="M3.145,23.256c0.207,2.786,5.24,12.088,5.24,12.088c5.269,5.677,8.167,20.785,9.464,29.675   c3.927,0.191,18.136,0.133,21.332-0.184c-1.718-5.009-10.992-26.633-9.465-28.312c0.083-0.092,0.167-0.201,0.252-0.325   c1.448-2.13,2.909-8.602,2.909-8.602c0.264-1.575,6.187-12.01,4.426-14.812c-2.325-3.694-3.411,0.336-3.411,0.336   c-0.455,1.257-0.988,2.735-1.473,3.886c-0.015,0.031-0.482,0.739-0.494,0.771c-1.07,2.52-2.073,3.492-2.073,3.492l0.206-12.222   c0.162-5.201-2.148-6.412-2.148-6.412c-3.255-0.74-2.318,6.669-2.318,6.669c0.207,3.311-2.454,6.907-2.454,6.907   c0-1.579-0.481-13.143-0.481-13.143c-0.68-3.206-3.098-1.387-3.098-1.387c-0.947,1.26-1.96,14.759-1.96,14.759   s-1.04-5.348-1.249-6.033c-0.022-0.072-0.839-5.789-0.839-5.789c-0.734-2.26-2.784-0.843-2.784-0.843   c-1.841,0.521-1.583,6.303-1.583,6.303c0.362,5.2-1.223,14.919-1.223,14.919s-1.732-3.731-2.518-5.311   c-0.785-1.576-2.834-2.26-2.834-2.26s-1.575-0.527-2.365,0.524c-0.69,0.915,0.589,2.761,0.92,3.209   C3.066,21.188,3.017,21.549,3.145,23.256z"/></g></svg>